# xmcd CD database file
#
# Track frame offsets:
#	187
#	10207
#	26180
#	43422
#	59870
#	81795
#	91990
#	109220
#	124232
#	143880
#	158390
#	169712
#	186312
#	205330
#
# Disc length: 2985 seconds
#
# Revision: 0
# Processed by: cddbd v1.5.1PL2 Copyright (c) Steve Scherf et al.
# Submitted via: CDex 1.60beta1-cs1
#
DISCID=c80ba70e
DTITLE=George Shearing And THE MONTGOMERY BROTHERS - George Shearing And The Montgomery Brothers
DYEAR=1961
DGENRE=Jazz
TTITLE0=Love Walked In (Take 11)
TTITLE1=Love For Sale
TTITLE2=No Hard Feelings
TTITLE3=Enchanted
TTITLE4=Stranger In Paradise
TTITLE5=Pavane Pour Une Infante Defunt
TTITLE6=Double Deal
TTITLE7=And Then I Wrote
TTITLE8=Darn That Dream (Take 8)
TTITLE9=Lois Ann
TTITLE10=Mambo In Chimes (Take 11)
TTITLE11=Love Walked In (Take 1)
TTITLE12=Darn That Dream (Take 1)
TTITLE13=Mambo In Chimes (Take 1)
EXTD=YEAR: 1961
EXTT0=
EXTT1=
EXTT2=
EXTT3=
EXTT4=
EXTT5=
EXTT6=
EXTT7=
EXTT8=
EXTT9=
EXTT10=
EXTT11=
EXTT12=
EXTT13=
PLAYORDER=
